<?xml version="1.0" standalone="no"?>
<!DOCTYPE svg PUBLIC "-//W3C//DTD SVG 20010904//EN"
 "http://www.w3.org/TR/2001/REC-SVG-20010904/DTD/svg10.dtd">
<svg version="1.0" xmlns="http://www.w3.org/2000/svg"
 width="500.000000pt" height="500.000000pt" viewBox="0 0 500.000000 500.000000"
 preserveAspectRatio="xMidYMid meet">
<metadata>
Created by potrace 1.16, written by Peter Selinger 2001-2019
</metadata>
<g transform="translate(0.000000,500.000000) scale(0.100000,-0.100000)"
fill="#000000" stroke="none">
<path d="M3030 3320 c-190 -40 -352 -216 -439 -476 -17 -51 -31 -99 -31 -108
0 -14 23 -16 203 -16 l203 0 18 68 c26 100 73 183 118 207 35 18 40 19 65 5
16 -9 36 -34 47 -55 10 -22 23 -43 30 -47 6 -5 7 -8 1 -8 -7 0 -7 -28 -1 -85
l9 -85 195 0 194 0 -7 63 c-17 147 -73 301 -140 383 -43 53 -128 109 -202 135
-66 22 -199 32 -263 19z"/>
<path d="M1170 3258 c-8 -19 -60 -479 -60 -525 0 -10 46 -13 195 -13 148 0
197 3 200 13 2 6 12 122 23 257 16 209 17 248 5 268 -13 21 -18 22 -183 22
-167 0 -171 0 -180 -22z"/>
<path d="M1860 3258 c-9 -22 -30 -363 -30 -483 l0 -55 189 0 c105 0 192 3 194
8 3 4 8 123 12 264 6 201 5 261 -5 273 -10 12 -42 15 -181 15 -166 0 -170 0
-179 -22z"/>
<path d="M1083 2163 c8 -211 43 -320 128 -403 73 -71 223 -107 399 -96 296 18
475 157 554 429 14 48 28 117 32 152 l7 65 -200 0 -201 0 -7 -46 c-21 -142
-80 -204 -193 -204 -88 0 -119 44 -125 175 l-3 70 -198 3 -199 2 6 -147z"/>
<path d="M2514 2299 c-3 -6 -3 -43 1 -81 28 -292 182 -500 403 -547 150 -31
318 9 431 103 43 36 131 137 131 150 0 4 9 19 20 34 27 37 87 192 95 246 5 33
3 45 -7 49 -7 2 -5 3 5 2 12 -2 17 4 17 23 l0 27 -103 1 c-65 1 -105 -3 -109
-10 -5 -8 -8 -7 -8 2 0 17 -170 15 -175 -2 -39 -136 -59 -186 -82 -214 -34
-40 -77 -53 -123 -38 -48 16 -72 68 -79 175 l-6 86 -187 3 c-171 2 -187 1
-191 -15 -4 -17 -5 -17 -6 0 -1 19 -16 23 -27 6z"/>
</g>
</svg>
